<svg xmlns="http://www.w3.org/2000/svg" viewBox="0 0 1320 920" role="img" aria-label="Broad17 主分析物种的哺乳动物目覆盖">
  <style>
    .title { font: 700 34px "Noto Sans SC", "Microsoft YaHei", Arial, sans-serif; fill: #172321; }
    .subtitle { font: 400 20px "Noto Sans SC", "Microsoft YaHei", Arial, sans-serif; fill: #5e6b67; }
    .label { font: 500 18px "Noto Sans SC", "Microsoft YaHei", Arial, sans-serif; fill: #52605c; }
    .value { font: 700 16px "Noto Sans SC", "Microsoft YaHei", Arial, sans-serif; fill: #35413e; }
    .axis { font: 500 16px "Noto Sans SC", "Microsoft YaHei", Arial, sans-serif; fill: #6b7773; }
    .note { font: 500 16px "Noto Sans SC", "Microsoft YaHei", Arial, sans-serif; fill: #5e6b67; }
  </style>
  <rect width="1320" height="920" rx="18" fill="#fbfaf7" />
  <text x="64" y="58" class="title">主分析物种的哺乳动物目覆盖</text>
  <text x="64" y="92" class="subtitle">固定 97 个染色体级物种：23 个翼手目物种与 74 个非蝙蝠对照。</text>
  <line x1="196.0" y1="118" x2="196.0" y2="824" stroke="#dbe4e0" stroke-width="1.2" /><text x="196.0" y="864" text-anchor="middle" class="axis">0</text><line x1="403.6" y1="118" x2="403.6" y2="824" stroke="#dbe4e0" stroke-width="1.2" /><text x="403.6" y="864" text-anchor="middle" class="axis">5</text><line x1="611.2" y1="118" x2="611.2" y2="824" stroke="#dbe4e0" stroke-width="1.2" /><text x="611.2" y="864" text-anchor="middle" class="axis">10</text><line x1="818.8" y1="118" x2="818.8" y2="824" stroke="#dbe4e0" stroke-width="1.2" /><text x="818.8" y="864" text-anchor="middle" class="axis">15</text><line x1="1026.4" y1="118" x2="1026.4" y2="824" stroke="#dbe4e0" stroke-width="1.2" /><text x="1026.4" y="864" text-anchor="middle" class="axis">20</text><line x1="1234.0" y1="118" x2="1234.0" y2="824" stroke="#dbe4e0" stroke-width="1.2" /><text x="1234.0" y="864" text-anchor="middle" class="axis">25</text><text x="178" y="154" text-anchor="end" class="label">翼手目</text><rect x="196" y="136" width="955.0" height="26" rx="3" fill="#b84f3a" /><text x="1161.0" y="154" class="value">23</text><text x="178" y="194" text-anchor="end" class="label">偶蹄目</text><rect x="196" y="176" width="539.8" height="26" rx="3" fill="#9fbdb4" /><text x="745.8" y="194" class="value">13</text><text x="178" y="234" text-anchor="end" class="label">灵长目</text><rect x="196" y="216" width="498.2" height="26" rx="3" fill="#9fbdb4" /><text x="704.2" y="234" class="value">12</text><text x="178" y="274" text-anchor="end" class="label">啮齿目</text><rect x="196" y="256" width="498.2" height="26" rx="3" fill="#9fbdb4" /><text x="704.2" y="274" class="value">12</text><text x="178" y="314" text-anchor="end" class="label">食肉目</text><rect x="196" y="296" width="456.7" height="26" rx="3" fill="#9fbdb4" /><text x="662.7" y="314" class="value">11</text><text x="178" y="354" text-anchor="end" class="label">奇蹄目</text><rect x="196" y="336" width="249.1" height="26" rx="3" fill="#9fbdb4" /><text x="455.1" y="354" class="value">6</text><text x="178" y="394" text-anchor="end" class="label">兔形目</text><rect x="196" y="376" width="166.1" height="26" rx="3" fill="#9fbdb4" /><text x="372.1" y="394" class="value">4</text><text x="178" y="434" text-anchor="end" class="label">真盲缺目</text><rect x="196" y="416" width="124.6" height="26" rx="3" fill="#9fbdb4" /><text x="330.6" y="434" class="value">3</text><text x="178" y="474" text-anchor="end" class="label">长鼻目</text><rect x="196" y="456" width="83.0" height="26" rx="3" fill="#9fbdb4" /><text x="289.0" y="474" class="value">2</text><text x="178" y="514" text-anchor="end" class="label">海牛目</text><rect x="196" y="496" width="83.0" height="26" rx="3" fill="#9fbdb4" /><text x="289.0" y="514" class="value">2</text><text x="178" y="554" text-anchor="end" class="label">披毛目</text><rect x="196" y="536" width="83.0" height="26" rx="3" fill="#9fbdb4" /><text x="289.0" y="554" class="value">2</text><text x="178" y="594" text-anchor="end" class="label">鳞甲目</text><rect x="196" y="576" width="83.0" height="26" rx="3" fill="#9fbdb4" /><text x="289.0" y="594" class="value">2</text><text x="178" y="634" text-anchor="end" class="label">非洲猬目</text><rect x="196" y="616" width="41.5" height="26" rx="3" fill="#9fbdb4" /><text x="247.5" y="634" class="value">1</text><text x="178" y="674" text-anchor="end" class="label">蹄兔目</text><rect x="196" y="656" width="41.5" height="26" rx="3" fill="#9fbdb4" /><text x="247.5" y="674" class="value">1</text><text x="178" y="714" text-anchor="end" class="label">皮翼目</text><rect x="196" y="696" width="41.5" height="26" rx="3" fill="#9fbdb4" /><text x="247.5" y="714" class="value">1</text><text x="178" y="754" text-anchor="end" class="label">有甲目</text><rect x="196" y="736" width="41.5" height="26" rx="3" fill="#9fbdb4" /><text x="247.5" y="754" class="value">1</text><text x="178" y="794" text-anchor="end" class="label">象鼩目</text><rect x="196" y="776" width="41.5" height="26" rx="3" fill="#9fbdb4" /><text x="247.5" y="794" class="value">1</text>
  <text x="715.0" y="898" text-anchor="middle" class="axis">物种数量</text>
  <text x="64" y="878" class="note">翼手目是最大单一哺乳动物目；非蝙蝠背景提供跨目的比较参照。</text>
</svg>
